<svg enable-background="new 41.64 164.945 512 512" viewBox="41.64 164.945 512 512" xmlns="http://www.w3.org/2000/svg">
    <path d="m402.967 586.468h60.271c49.896 0 90.282-40.387 90.282-90.283v-240.838c0-49.896-40.386-90.283-90.282-90.283h-240.835c-49.897 0-90.283 40.387-90.283 90.283v60.271c0 16.673 13.462 30.135 30.135 30.135 16.674 0 30.136-13.462 30.136-30.135v-60.271c0-16.673 13.463-30.135 30.136-30.135h240.835c16.674 0 30.136 13.462 30.136 30.135v240.837c0 16.674-13.462 30.136-30.136 30.136h-60.272c-16.673 0-30.136 13.462-30.136 30.135s13.339 30.013 30.013 30.013z"/>
    <path d="m314.165 366.132-67.309 202.056-27.667-55.455c-2.963-5.928-7.532-10.498-13.462-13.462l-55.453-27.665 202.055-67.312c15.809-5.311 24.331-22.354 19.02-38.039-5.311-15.809-22.354-24.331-38.04-19.021l-270.97 90.286c-11.61 3.828-19.638 14.327-20.503 26.43-.864 12.104 5.682 23.591 16.55 29.024l111.525 55.7 55.702 111.526c5.435 10.869 16.921 17.415 29.024 16.55s22.603-9.016 26.43-20.503l90.282-270.972c5.312-15.809-3.211-32.852-19.02-38.04-15.931-5.433-32.975 3.089-38.164 18.897z"/>
</svg>